<svg xmlns="http://www.w3.org/2000/svg" version="1.1" xmlns:xlink="http://www.w3.org/1999/xlink" xmlns:svgjs="http://svgjs.dev/svgjs" width="1000" height="1012" viewBox="0 0 1000 1012"><g transform="matrix(1,0,0,1,0.883954508250838,0.40971659919023296)"><svg viewBox="0 0 244 247" data-background-color="#77d4fc" preserveAspectRatio="xMidYMid meet" height="1012" width="1000" xmlns="http://www.w3.org/2000/svg" xmlns:xlink="http://www.w3.org/1999/xlink"><g id="tight-bounds" transform="matrix(1,0,0,1,-0.2156849000132013,-0.09999999999999432)"><svg viewBox="0 0 244.43135999999998 247.2" height="247.2" width="244.43135999999998"><g><svg></svg></g><g><svg viewBox="0 0 244.43135999999998 247.2" height="247.2" width="244.43135999999998"><g transform="matrix(1,0,0,1,0,107.34471251231527)"><svg viewBox="0 0 244.43135999999998 32.51057497536946" height="32.51057497536946" width="244.43135999999998"><g><svg viewBox="0 0 244.43135999999998 32.51057497536946" height="32.51057497536946" width="244.43135999999998"><g><svg viewBox="0 0 244.43135999999998 32.51057497536946" height="32.51057497536946" width="244.43135999999998"><g><svg viewBox="0 0 244.43135999999998 32.51057497536946" height="32.51057497536946" width="244.43135999999998"><g id="textblocktransform"><svg viewBox="0 0 244.43135999999998 32.51057497536946" height="32.51057497536946" width="244.43135999999998" id="textblock"><g><svg viewBox="0 0 244.43135999999998 32.51057497536946" height="32.51057497536946" width="244.43135999999998"><g transform="matrix(1,0,0,1,0,0)"><svg width="244.43135999999998" viewBox="2 -36.25 274.0199890136719 36.45000076293945" height="32.51057497536946" data-palette-color="#000000"><path d="M17.65-32.3L17.65-32.3Q12-32.3 8.7-28.1 5.4-23.9 5.4-16L5.4-16Q5.4-12.6 6.1-10.05 6.8-7.5 7.83-6.1 8.85-4.7 10.35-3.9L10.35-3.9Q12.75-2.55 15.95-2.55L15.95-2.55Q20.9-2.55 25.85-3.65L25.85-3.65 26.45-1.05Q25.6-0.75 21.93-0.28 18.25 0.2 15.95 0.2 13.65 0.2 11.95-0.13 10.25-0.45 8.35-1.5 6.45-2.55 5.13-4.28 3.8-6 2.9-9 2-12 2-16L2-16Q2-24.85 6.05-29.8L6.05-29.8Q10.3-35 17.65-35L17.65-35Q19.9-35 22.53-34.58 25.15-34.15 26.25-33.75L26.25-33.75 26.85-26.55 24.4-26.2 23.7-31.6Q20.5-32.3 17.65-32.3ZM36.85 0.2L36.85 0.2Q30.2 0.2 29.8-5.05L29.8-5.05Q29.75-5.4 29.75-5.75L29.75-5.75Q29.75-9.95 34.8-11.35L34.8-11.35Q37.6-12.05 45.6-12.95L45.6-12.95 45.6-16.8Q45.6-22.25 39.9-22.25L39.9-22.25Q35.8-22.2 31.2-20.35L31.2-20.35 30.35-22.5 30.85-22.7Q34.75-24.4 36.8-24.75 38.85-25.1 39.8-25.13 40.75-25.15 41.62-25.1 42.5-25.05 43.9-24.65 45.3-24.25 46.32-23.53 47.35-22.8 48.1-21.35 48.85-19.9 48.85-17.9L48.85-17.9 48.85-2.5 52.7-2.5 52.7 0 46.1 0 45.6-1.9Q41.1 0.2 36.85 0.2ZM37.75-2.1L37.75-2.1Q41.55-2.1 45.6-3.8L45.6-3.8 45.6-10.95Q38.1-10.7 35.9-9.95L35.9-9.95Q34.2-9.5 33.5-8.33 32.8-7.15 32.8-6.45 32.8-5.75 32.8-5.5L32.8-5.5Q32.95-3.7 34.35-2.9 35.75-2.1 37.75-2.1ZM58.7-8.05L58.95-3.25Q61.05-2.6 62.32-2.6 63.6-2.6 64-2.65L64-2.65Q66.6-2.7 68.35-3.75 70.1-4.8 70.1-6.7 70.1-8.6 68.72-9.65 67.35-10.7 65.4-11.25 63.45-11.8 61.5-12.45 59.55-13.1 58.17-14.5 56.8-15.9 56.8-18.15L56.8-18.15Q56.8-21.35 59.25-23.28 61.7-25.2 65.45-25.2L65.45-25.2Q68.25-25.2 71.1-24.2L71.1-24.2 72-23.85 72-18.1 69.55-17.75 69.35-22Q67.35-22.3 66-22.3L66-22.3Q63.25-22.3 61.65-21.23 60.05-20.15 60.05-18.48 60.05-16.8 61.42-15.85 62.8-14.9 64.75-14.35 66.7-13.8 68.65-13.13 70.6-12.45 71.97-10.93 73.35-9.4 73.35-6.95L73.35-6.95Q73.35-3.65 70.87-1.73 68.4 0.2 63.85 0.2 59.3 0.2 56.3-1.95L56.3-1.95 56.3-7.7 58.7-8.05ZM84.44 0.2L84.44 0.2Q77.79 0.2 77.39-5.05L77.39-5.05Q77.34-5.4 77.34-5.75L77.34-5.75Q77.34-9.95 82.39-11.35L82.39-11.35Q85.19-12.05 93.19-12.95L93.19-12.95 93.19-16.8Q93.19-22.25 87.49-22.25L87.49-22.25Q83.39-22.2 78.79-20.35L78.79-20.35 77.94-22.5 78.44-22.7Q82.34-24.4 84.39-24.75 86.44-25.1 87.39-25.13 88.34-25.15 89.22-25.1 90.09-25.05 91.49-24.65 92.89-24.25 93.92-23.53 94.94-22.8 95.69-21.35 96.44-19.9 96.44-17.9L96.44-17.9 96.44-2.5 100.29-2.5 100.29 0 93.69 0 93.19-1.9Q88.69 0.2 84.44 0.2ZM85.34-2.1L85.34-2.1Q89.14-2.1 93.19-3.8L93.19-3.8 93.19-10.95Q85.69-10.7 83.49-9.95L83.49-9.95Q81.79-9.5 81.09-8.33 80.39-7.15 80.39-6.45 80.39-5.75 80.39-5.5L80.39-5.5Q80.54-3.7 81.94-2.9 83.34-2.1 85.34-2.1ZM122.79-32.25L119.74-32.25 119.74-35 131.79-35Q136.94-35 139.74-32.75 142.54-30.5 142.54-26.05L142.54-26.05Q142.54-23.1 140.46-19.93 138.39-16.75 136.39-15.6L136.39-15.6 144.29-2.75 147.84-2.75 147.84 0 142.34 0 133.44-14.35 126.19-14.35 126.19-2.75 129.84-2.75 129.84 0 119.74 0 119.74-2.75 122.79-2.75 122.79-32.25ZM131.54-32.25L131.54-32.25 126.19-32.25 126.19-17.1 134.44-17.1Q139.14-21.4 139.14-25.75L139.14-25.75Q139.14-28.95 137.19-30.6 135.24-32.25 131.54-32.25ZM169.24 0L168.74-2.9Q164.19 0.15 160.14 0.15L160.14 0.15Q158.44 0.15 156.14-0.7L156.14-0.7Q154.64-1.25 153.74-2.78 152.84-4.3 152.84-6.6L152.84-6.6 152.84-22.5 149.34-22.5 149.34-25 156.09-25 156.09-7.6Q156.09-5.85 156.84-4.73 157.59-3.6 158.74-3.25L158.74-3.25Q160.64-2.65 161.79-2.75L161.79-2.75Q164.79-2.8 168.74-4.9L168.74-4.9 168.74-22.5 165.24-22.5 165.24-25 171.99-25 171.99-2.5 175.84-2.5 175.84 0 169.24 0ZM181.93-8.05L182.18-3.25Q184.28-2.6 185.56-2.6 186.83-2.6 187.23-2.65L187.23-2.65Q189.83-2.7 191.58-3.75 193.33-4.8 193.33-6.7 193.33-8.6 191.96-9.65 190.58-10.7 188.63-11.25 186.68-11.8 184.73-12.45 182.78-13.1 181.41-14.5 180.03-15.9 180.03-18.15L180.03-18.15Q180.03-21.35 182.48-23.28 184.93-25.2 188.68-25.2L188.68-25.2Q191.48-25.2 194.33-24.2L194.33-24.2 195.23-23.85 195.23-18.1 192.78-17.75 192.58-22Q190.58-22.3 189.23-22.3L189.23-22.3Q186.48-22.3 184.88-21.23 183.28-20.15 183.28-18.48 183.28-16.8 184.66-15.85 186.03-14.9 187.98-14.35 189.93-13.8 191.88-13.13 193.83-12.45 195.21-10.93 196.58-9.4 196.58-6.95L196.58-6.95Q196.58-3.65 194.11-1.73 191.63 0.2 187.08 0.2 182.53 0.2 179.53-1.95L179.53-1.95 179.53-7.7 181.93-8.05ZM210.88-2.45L210.88-2.45 212.83-2.55 212.98-0.55Q212.93-0.55 212.28-0.4L212.28-0.4Q210.78-0.05 208.93-0.05L208.93-0.05Q207.23-0.15 205.83-0.63 204.43-1.1 203.23-2.63 202.03-4.15 202.03-6.55L202.03-6.55 202.03-22.1 199.48-22.1 199.88-24.5 202.08-24.95 202.48-29.75 205.28-30 205.28-25 211.33-25 211.33-22.1 205.28-22.1 205.28-7.4Q205.28-2.45 210.88-2.45ZM218.78-22.5L215.43-22.5 215.43-25 222.03-25 222.03-2.5 225.78-2.5 225.78 0 215.68 0 215.68-2.5 218.78-2.5 218.78-22.5ZM220.33-31.7Q219.33-31.7 218.78-32.33 218.23-32.95 218.23-33.98 218.23-35 218.8-35.63 219.38-36.25 220.38-36.25 221.38-36.25 222-35.63 222.63-35 222.63-33.93 222.63-32.85 221.98-32.27 221.33-31.7 220.33-31.7ZM240.78-22.3L240.78-22.3Q236.53-22.3 233.9-19.48 231.28-16.65 231.28-11.55L231.28-11.55Q231.28-2.7 239.53-2.7L239.53-2.7Q242.73-2.7 244.88-3.23 247.03-3.75 247.23-3.9L247.23-3.9 247.93-1.55Q246.78-0.8 244.13-0.3 241.48 0.2 239.33 0.2 237.18 0.2 235.43-0.25 233.68-0.7 231.9-1.85 230.13-3 229.08-5.48 228.03-7.95 228.03-11.5L228.03-11.5Q228.03-18.05 231.38-21.4L231.38-21.4Q235.13-25.25 240.83-25.25L240.83-25.25Q242.63-25.25 244.65-24.78 246.68-24.3 247.78-23.3L247.78-23.3 247.78-16.75 245.33-16.4 245.08-21.65Q243.03-22.3 240.78-22.3ZM260.17 0.2L260.17 0.2Q253.52 0.2 253.12-5.05L253.12-5.05Q253.07-5.4 253.07-5.75L253.07-5.75Q253.07-9.95 258.12-11.35L258.12-11.35Q260.92-12.05 268.92-12.95L268.92-12.95 268.92-16.8Q268.92-22.25 263.22-22.25L263.22-22.25Q259.12-22.2 254.52-20.35L254.52-20.35 253.67-22.5 254.17-22.7Q258.07-24.4 260.12-24.75 262.17-25.1 263.12-25.13 264.07-25.15 264.95-25.1 265.82-25.05 267.22-24.65 268.62-24.25 269.65-23.53 270.67-22.8 271.42-21.35 272.17-19.9 272.17-17.9L272.17-17.9 272.17-2.5 276.02-2.5 276.02 0 269.42 0 268.92-1.9Q264.42 0.2 260.17 0.2ZM261.07-2.1L261.07-2.1Q264.87-2.1 268.92-3.8L268.92-3.8 268.92-10.95Q261.42-10.7 259.22-9.95L259.22-9.95Q257.52-9.5 256.82-8.33 256.12-7.15 256.12-6.45 256.12-5.75 256.12-5.5L256.12-5.5Q256.27-3.7 257.67-2.9 259.07-2.1 261.07-2.1Z" opacity="1" transform="matrix(1,0,0,1,0,0)" fill="#000000" class="wordmark-text-0" data-fill-palette-color="primary" id="text-0"></path></svg></g></svg></g></svg></g></svg></g><g></g></svg></g></svg></g></svg></g><path d="M0 101.345L0 1 244.431 1 244.431 101.345 241.5 101.345 241.5 3.932 2.932 3.932 2.932 101.345 0 101.345M0 145.855L0 246.2 244.431 246.2 244.431 145.855 241.5 145.855 241.5 243.268 2.932 243.268 2.932 145.855 0 145.855" fill="#000000" stroke="transparent" data-fill-palette-color="primary"></path></svg></g><defs></defs></svg><rect width="244.43135999999998" height="247.2" fill="none" stroke="none" visibility="hidden"></rect></g></svg></g></svg>