<?xml version="1.0" encoding="UTF-8"?>
<svg width="16px" height="16px" viewBox="0 0 16 16" version="1.1" xmlns="http://www.w3.org/2000/svg" xmlns:xlink="http://www.w3.org/1999/xlink">
    <title>arrowRight</title>
    <g id="arrowRight" stroke="none" stroke-width="1" fill="none" fill-rule="evenodd">
        <path d="M14.78,7.4697 L11.53,4.2197 C11.237,3.9267 10.762,3.9267 10.469,4.2197 C10.176,4.5127 10.176,4.9877 10.469,5.2807 L12.439,7.2497 L1.75,7.2497 C1.336,7.2497 1,7.5857 1,7.9997 C1,8.4137 1.336,8.7497 1.75,8.7497 L12.439,8.7497 L10.469,10.7197 C10.176,11.0127 10.176,11.4877 10.469,11.7807 C10.616,11.9267 10.808,11.9997 11,11.9997 C11.192,11.9997 11.384,11.9267 11.53,11.7807 L14.78,8.5307 C15.073,8.2377 15.073,7.7627 14.78,7.4697" id="Shape" fill="#000000"></path>
    </g>
</svg>