<?xml version="1.0" encoding="UTF-8"?>
<svg width="16px" height="16px" viewBox="0 0 16 16" version="1.1" xmlns="http://www.w3.org/2000/svg" xmlns:xlink="http://www.w3.org/1999/xlink">
    <title>close</title>
    <g id="close" stroke="none" stroke-width="1" fill="none" fill-rule="evenodd">
        <path d="M9.0605,7.99975 L11.7805,5.27975 C12.0735,4.98675 12.0735,4.51275 11.7805,4.21975 C11.4875,3.92675 11.0125,3.92675 10.7195,4.21975 L7.9995,6.93875 L5.2805,4.21975 C4.9875,3.92675 4.5125,3.92675 4.2195,4.21975 C3.9265,4.51275 3.9265,4.98675 4.2195,5.27975 L6.9395,7.99975 L4.2195,10.71975 C3.9265,11.01275 3.9265,11.48675 4.2195,11.77975 C4.3665,11.92675 4.5585,11.99975 4.7495,11.99975 C4.9415,11.99975 5.1335,11.92675 5.2805,11.77975 L7.9995,9.06075 L10.7195,11.77975 C10.8665,11.92675 11.0585,11.99975 11.2495,11.99975 C11.4415,11.99975 11.6335,11.92675 11.7805,11.77975 C12.0735,11.48675 12.0735,11.01275 11.7805,10.71975 L9.0605,7.99975 Z" id="Shape" fill="#000000"></path>
    </g>
</svg>