<?xml version="1.0" encoding="UTF-8"?>
<svg width="16px" height="16px" viewBox="0 0 16 16" version="1.1" xmlns="http://www.w3.org/2000/svg" xmlns:xlink="http://www.w3.org/1999/xlink">
    <title>download</title>
    <g id="download" stroke="none" stroke-width="1" fill="none" fill-rule="evenodd">
        <path d="M7.646,10.8535 C7.744,10.9515 7.872,10.9995 8,10.9995 C8.127,10.9995 8.255,10.9515 8.353,10.8535 L11.353,7.8535 C11.548,7.6585 11.548,7.3415 11.353,7.1465 C11.158,6.9515 10.841,6.9515 10.646,7.1465 L8.5,9.2925 L8.5,0.4995 C8.5,0.2235 8.276,-0.0005 8,-0.0005 C7.723,-0.0005 7.5,0.2235 7.5,0.4995 L7.5,9.2925 L5.353,7.1465 C5.158,6.9515 4.841,6.9515 4.646,7.1465 C4.451,7.3415 4.451,7.6585 4.646,7.8535 L7.646,10.8535 Z M16,12.1365 L16,13.8635 C16,15.0405 14.934,15.9995 13.625,15.9995 L2.375,15.9995 C1.065,15.9995 0,15.0405 0,13.8635 L0,12.1365 C0,11.8605 0.223,11.6365 0.5,11.6365 C0.776,11.6365 1,11.8605 1,12.1365 L1,13.8635 C1,14.4905 1.616,14.9995 2.375,14.9995 L13.625,14.9995 C14.383,14.9995 15,14.4905 15,13.8635 L15,12.1365 C15,11.8605 15.223,11.6365 15.5,11.6365 C15.776,11.6365 16,11.8605 16,12.1365 L16,12.1365 Z" id="Shape" fill="#000000"></path>
    </g>
</svg>