<?xml version="1.0" encoding="UTF-8"?>
<svg width="16px" height="16px" viewBox="0 0 16 16" version="1.1" xmlns="http://www.w3.org/2000/svg" xmlns:xlink="http://www.w3.org/1999/xlink">
    <title>socials/facebook</title>
    <defs>
        <path d="M15,2.5 L15,13.5 C15,14.328125 14.328125,15 13.5,15 L10.834375,15 L10.834375,9.4625 L12.728125,9.4625 L13,7.35 L10.834375,7.35 L10.834375,6 C10.834375,5.3875 11.003125,4.971875 11.88125,4.971875 L13,4.971875 L13,3.084375 C12.80625,3.059375 12.14375,3 11.36875,3 C9.75625,3 8.65,3.984375 8.65,5.79375 L8.65,7.353125 L6.75,7.353125 L6.75,9.465625 L8.653125,9.465625 L8.653125,15 L2.5,15 C1.671875,15 1,14.328125 1,13.5 L1,2.5 C1,1.671875 1.671875,1 2.5,1 L13.5,1 C14.328125,1 15,1.671875 15,2.5 Z" id="path-1"></path>
    </defs>
    <g id="socials/facebook" stroke="none" stroke-width="1" fill="none" fill-rule="evenodd">
        <mask id="mask-2" fill="white">
            <use xlink:href="#path-1"></use>
        </mask>
        <use id="Shape" fill="#000000" xlink:href="#path-1"></use>
    </g>
</svg>