<?xml version="1.0" encoding="UTF-8"?>
<svg width="16px" height="16px" viewBox="0 0 16 16" version="1.1" xmlns="http://www.w3.org/2000/svg" xmlns:xlink="http://www.w3.org/1999/xlink">
    <title>help</title>
    <defs>
        <path d="M8,1 C11.866,1 15,4.134 15,8 C15,11.866 11.866,15 8,15 C4.134,15 1,11.866 1,8 C1,4.134 4.134,1 8,1 Z M8,2 C4.692,2 2,4.691 2,8 C2,11.309 4.692,14 8,14 C11.309,14 14,11.309 14,8 C14,4.691 11.309,2 8,2 Z M7.8003,10.2242 C7.9863,10.2242 8.1403,10.2842 8.2603,10.4042 C8.3803,10.5242 8.4403,10.6782 8.4403,10.8642 C8.4403,11.0512 8.3803,11.2042 8.2603,11.3242 C8.1403,11.4442 7.9863,11.5042 7.8003,11.5042 C7.6133,11.5042 7.4603,11.4442 7.3403,11.3242 C7.2203,11.2042 7.1603,11.0512 7.1603,10.8642 C7.1603,10.6782 7.2203,10.5242 7.3403,10.4042 C7.4603,10.2842 7.6133,10.2242 7.8003,10.2242 Z M8.0303,4.4242 C8.6363,4.4242 9.1233,4.5912 9.4903,4.9242 C9.8573,5.2582 10.0403,5.6982 10.0403,6.2442 C10.0403,6.5372 9.9903,6.7912 9.8903,7.0042 C9.7903,7.2182 9.6703,7.3922 9.5303,7.5292 C9.3903,7.6662 9.2103,7.8142 8.9903,7.9742 C8.7573,8.1472 8.5853,8.2972 8.4753,8.4242 C8.3653,8.5512 8.3103,8.7042 8.3103,8.8842 L8.3103,9.3342 C8.3103,9.4012 8.2773,9.4342 8.2103,9.4342 L7.4403,9.4342 C7.3733,9.4342 7.3403,9.4012 7.3403,9.3342 L7.3403,8.8342 C7.3403,8.5342 7.4173,8.2872 7.5703,8.0942 C7.7233,7.9012 7.9463,7.6942 8.2403,7.4742 C8.5133,7.2672 8.7203,7.0812 8.8603,6.9142 C9.0003,6.7472 9.0703,6.5342 9.0703,6.2742 C9.0703,5.9742 8.9713,5.7362 8.7753,5.5592 C8.5783,5.3832 8.3203,5.2942 8.0003,5.2942 C7.6733,5.2942 7.4103,5.3862 7.2103,5.5692 C7.0103,5.7522 6.9103,5.9942 6.9103,6.2942 L6.9103,6.5542 C6.9103,6.6212 6.8773,6.6542 6.8103,6.6542 L6.0503,6.6142 C5.9833,6.6142 5.9503,6.5812 5.9503,6.5142 L5.9503,6.2942 C5.9503,5.9282 6.0373,5.6022 6.2103,5.3192 C6.3833,5.0352 6.6283,4.8162 6.9453,4.6592 C7.2613,4.5022 7.6233,4.4242 8.0303,4.4242 Z" id="path-1"></path>
    </defs>
    <g id="help" stroke="none" stroke-width="1" fill="none" fill-rule="evenodd">
        <mask id="mask-2" fill="white">
            <use xlink:href="#path-1"></use>
        </mask>
        <use id="Shape" fill="#000000" xlink:href="#path-1"></use>
    </g>
</svg>