<?xml version="1.0" encoding="UTF-8"?>
<svg width="16px" height="16px" viewBox="0 0 16 16" version="1.1" xmlns="http://www.w3.org/2000/svg" xmlns:xlink="http://www.w3.org/1999/xlink">
    <title>socials/instagram</title>
    <defs>
        <path d="M8.00156163,4.40981595 C6.01517011,4.40981595 4.41293921,6.01204685 4.41293921,7.99843837 C4.41293921,9.98482989 6.01517011,11.5870608 8.00156163,11.5870608 C9.98795315,11.5870608 11.590184,9.98482989 11.590184,7.99843837 C11.590184,6.01204685 9.98795315,4.40981595 8.00156163,4.40981595 Z M5.66848857,7.99843837 C5.66848857,6.71165644 6.7147797,5.66536531 8.00156163,5.66536531 C9.28834356,5.66536531 10.3346347,6.71165644 10.3346347,7.99843837 C10.3346347,9.2852203 9.2852203,10.3315114 8.00156163,10.3315114 C6.71790296,10.3315114 5.66848857,9.2852203 5.66848857,7.99843837 Z M12.57401,4.26302287 C12.57401,4.72838818 12.1992192,5.10005577 11.7369771,5.10005577 C11.2716118,5.10005577 10.8999442,4.72526492 10.8999442,4.26302287 C10.8999442,3.80078081 11.2747351,3.42598996 11.7369771,3.42598996 C12.1992192,3.42598996 12.57401,3.80078081 12.57401,4.26302287 Z M14.9508087,5.1125488 C14.8977133,3.9912995 14.6416062,2.99810374 13.8201896,2.17981037 C13.0018963,1.36151701 12.0087005,1.10540993 10.8874512,1.0491913 C9.73184607,0.9836029 6.26815393,0.9836029 5.1125488,1.0491913 C3.99442276,1.10228667 3.00122699,1.35839375 2.17981037,2.17668712 C1.35839375,2.99498048 1.10540993,3.98817624 1.0491913,5.10942554 C0.9836029,6.26503067 0.9836029,9.72872281 1.0491913,10.8843279 C1.10228667,12.0055772 1.35839375,12.998773 2.17981037,13.8170664 C3.00122699,14.6353597 3.9912995,14.8914668 5.1125488,14.9476854 C6.26815393,15.0132738 9.73184607,15.0132738 10.8874512,14.9476854 C12.0087005,14.8945901 13.0018963,14.638483 13.8201896,13.8170664 C14.638483,12.998773 14.8945901,12.0055772 14.9508087,10.8843279 C15.0163971,9.72872281 15.0163971,6.26815393 14.9508087,5.1125488 Z M13.4578918,12.124261 C13.2142777,12.7364194 12.7426659,13.2080312 12.1273843,13.4547685 C11.2060234,13.8201896 9.01974345,13.7358617 8.00156163,13.7358617 C6.98337981,13.7358617 4.79397658,13.8170664 3.87573898,13.4547685 C3.26358059,13.2111545 2.79196877,12.7395427 2.54523146,12.124261 C2.17981037,11.2029002 2.26413832,9.01662019 2.26413832,7.99843837 C2.26413832,6.98025655 2.18293363,4.79085332 2.54523146,3.87261573 C2.78884551,3.26045733 3.26045733,2.78884551 3.87573898,2.5421082 C4.79709983,2.17668712 6.98337981,2.26101506 8.00156163,2.26101506 C9.01974345,2.26101506 11.2091467,2.17981037 12.1273843,2.5421082 C12.7395427,2.78572225 13.2111545,3.25733408 13.4578918,3.87261573 C13.8233129,4.79397658 13.7389849,6.98025655 13.7389849,7.99843837 C13.7389849,9.01662019 13.8233129,11.2060234 13.4578918,12.124261 Z" id="path-1"></path>
    </defs>
    <g id="socials/instagram" stroke="none" stroke-width="1" fill="none" fill-rule="evenodd">
        <mask id="mask-2" fill="white">
            <use xlink:href="#path-1"></use>
        </mask>
        <use id="Shape" fill="#000000" xlink:href="#path-1"></use>
    </g>
</svg>