<?xml version="1.0" encoding="UTF-8"?>
<svg width="16px" height="16px" viewBox="0 0 16 16" version="1.1" xmlns="http://www.w3.org/2000/svg" xmlns:xlink="http://www.w3.org/1999/xlink">
    <title>socials/linkedIn</title>
    <defs>
        <path d="M14,1 L1.996875,1 C1.446875,1 1,1.453125 1,2.009375 L1,13.990625 C1,14.546875 1.446875,15 1.996875,15 L14,15 C14.55,15 15,14.546875 15,13.990625 L15,2.009375 C15,1.453125 14.55,1 14,1 Z M5.23125,13 L3.15625,13 L3.15625,6.31875 L5.234375,6.31875 L5.234375,13 L5.23125,13 Z M4.19375,5.40625 C3.528125,5.40625 2.990625,4.865625 2.990625,4.203125 C2.990625,3.540625 3.528125,3 4.19375,3 C4.85625,3 5.396875,3.540625 5.396875,4.203125 C5.396875,4.86875 4.859375,5.40625 4.19375,5.40625 L4.19375,5.40625 Z M13.009375,13 L10.934375,13 L10.934375,9.75 C10.934375,8.975 10.91875,7.978125 9.85625,7.978125 C8.775,7.978125 8.609375,8.821875 8.609375,9.69375 L8.609375,13 L6.534375,13 L6.534375,6.31875 L8.525,6.31875 L8.525,7.23125 L8.553125,7.23125 C8.83125,6.70625 9.509375,6.153125 10.51875,6.153125 C12.61875,6.153125 13.009375,7.5375 13.009375,9.3375 L13.009375,13 L13.009375,13 Z" id="path-1"></path>
    </defs>
    <g id="socials/linkedIn" stroke="none" stroke-width="1" fill="none" fill-rule="evenodd">
        <mask id="mask-2" fill="white">
            <use xlink:href="#path-1"></use>
        </mask>
        <use id="Shape" fill="#000000" xlink:href="#path-1"></use>
    </g>
</svg>