<?xml version="1.0" encoding="UTF-8"?>
<svg width="16px" height="16px" viewBox="0 0 16 16" version="1.1" xmlns="http://www.w3.org/2000/svg" xmlns:xlink="http://www.w3.org/1999/xlink">
    <title>menu</title>
    <g id="menu" stroke="none" stroke-width="1" fill="none" fill-rule="evenodd">
        <path d="M1.75,10.75 L14.25,10.75 C14.6642136,10.75 15,11.0857864 15,11.5 C15,11.9142136 14.6642136,12.25 14.25,12.25 L1.75,12.25 C1.33578644,12.25 1,11.9142136 1,11.5 C1,11.0857864 1.33578644,10.75 1.75,10.75 Z M1.75,7.25 L14.25,7.25 C14.6642136,7.25 15,7.58578644 15,8 C15,8.41421356 14.6642136,8.75 14.25,8.75 L1.75,8.75 C1.33578644,8.75 1,8.41421356 1,8 C1,7.58578644 1.33578644,7.25 1.75,7.25 Z M1.75,3.75 L14.25,3.75 C14.6642136,3.75 15,4.08578644 15,4.5 C15,4.91421356 14.6642136,5.25 14.25,5.25 L1.75,5.25 C1.33578644,5.25 1,4.91421356 1,4.5 C1,4.08578644 1.33578644,3.75 1.75,3.75 Z" id="Shape" fill="#000000"></path>
    </g>
</svg>