<?xml version="1.0" encoding="UTF-8"?>
<svg width="16px" height="16px" viewBox="0 0 16 16" version="1.1" xmlns="http://www.w3.org/2000/svg" xmlns:xlink="http://www.w3.org/1999/xlink">
    <title>socials/YouTube</title>
    <g id="socials/YouTube" stroke="none" stroke-width="1" fill="none" fill-rule="evenodd">
        <path d="M14.857669,5.12446459 C14.857669,5.12446459 14.720938,4.15918068 14.2997783,3.73545441 C13.7666206,3.17756371 13.1704638,3.17499708 12.8970017,3.14209763 C10.9391343,3 7.99988334,3 7.99988334,3 L7.99451676,3 C7.99451676,3 5.05503242,3 3.09739838,3.14209763 C2.82393627,3.17499708 2.22777954,3.17756371 1.69462176,3.73545441 C1.27346211,4.15918068 1.13953101,5.12446459 1.13953101,5.12446459 C1.13953101,5.12446459 1,6.25657906 1,7.39126015 L1,8.45220913 C1,9.58432359 1.13953101,10.7190047 1.13953101,10.7190047 C1.13953101,10.7190047 1.27626206,11.6842886 1.69462176,12.1080149 C2.22777954,12.6659056 2.92776787,12.6467726 3.23949601,12.7067382 C4.36064399,12.8133698 7.99988334,12.8462692 7.99988334,12.8462692 C7.99988334,12.8462692 10.9419343,12.8409027 12.8998017,12.7013716 C13.1732638,12.6684722 13.7694205,12.6659056 14.3025783,12.1080149 C14.7237379,11.6842886 14.860469,10.7190047 14.860469,10.7190047 C14.860469,10.7190047 15,9.58689022 15,8.45220913 L15,7.39126015 C14.9972,6.25914568 14.8579024,5.12446459 14.8579024,5.12446459 L14.857669,5.12446459 Z M6.55090748,9.73995433 L6.55090748,5.80531991 L10.3324778,7.77952034 L6.55090748,9.73995433 Z" id="Shape" fill="#000000" fill-rule="nonzero"></path>
    </g>
</svg>